<?xml version="1.0" encoding="utf-8"?>
<!-- Generator: Adobe Illustrator 15.1.0, SVG Export Plug-In . SVG Version: 6.00 Build 0)  -->
<!DOCTYPE svg PUBLIC "-//W3C//DTD SVG 1.1//EN" "http://www.w3.org/Graphics/SVG/1.1/DTD/svg11.dtd">
<svg version="1.1" id="Layer_1" xmlns="http://www.w3.org/2000/svg" xmlns:xlink="http://www.w3.org/1999/xlink" x="0px" y="0px"
	 width="293.938px" height="301.906px" viewBox="0 0 293.938 301.906" enable-background="new 0 0 293.938 301.906"
	 xml:space="preserve">
<polygon fill="#6B0303" points="185.238,107.453 152.818,107.453 152.818,117.953 141.119,117.953 141.119,107.453 108.699,107.453 
	117.989,94.243 114.209,94.243 121.309,84.143 113.969,84.143 121.049,74.073 116.149,74.073 125.419,60.883 119.659,60.883 
	146.969,22.043 174.278,60.883 168.519,60.883 177.789,74.073 172.889,74.073 179.969,84.143 172.629,84.143 179.729,94.243 
	175.949,94.243 "/>
<path fill="none" stroke="#790301" stroke-width="4" stroke-miterlimit="10" d="M146.889,169.438"/>
<path fill="none" stroke="#790301" stroke-width="4" stroke-miterlimit="10" d="M270.68,169.438
	c0,62.975-55.424,114.025-123.791,114.025c-68.368,0-123.791-51.051-123.791-114.025"/>
<path fill="#790301" stroke="#790301" stroke-width="8" stroke-miterlimit="10" d="M146.969,154.938c-78.959,0-142.969,0-142.969,0
	c0,78.959,64.009,142.969,142.969,142.969c78.959,0,142.969-64.01,142.969-142.969C289.938,154.938,225.928,154.938,146.969,154.938
	z M146.969,294.771C70.218,294.771,8,233.568,8,158.073c0,0,62.218,0,138.969,0c76.75,0,138.969,0,138.969,0
	C285.938,233.568,223.719,294.771,146.969,294.771z"/>
<path fill="#790301" d="M286.129,184.934h-136.16l41.4,104.119c-23.98,6.67-44.4,5.73-44.4,5.73h-0.08c0,0-20.42,0.939-44.41-5.73
	l41.41-104.119H11.969v-67.96h274.16V184.934z"/>
<path fill="none" stroke="#790301" stroke-width="4" stroke-miterlimit="10" d="M270.68,132.469
	c0-62.975-55.424-114.025-123.791-114.025c-68.368,0-123.791,51.051-123.791,114.025"/>
<path fill="#790301" stroke="#790301" stroke-width="8" stroke-miterlimit="10" d="M289.938,146.969
	C289.938,68.01,225.928,4,146.969,4C68.009,4,4,68.01,4,146.969c0,0,64.009,0,142.969,0
	C225.928,146.969,289.938,146.969,289.938,146.969z M285.938,143.833c0,0-62.219,0-138.969,0c-76.75,0-138.969,0-138.969,0
	C8,68.338,70.218,7.136,146.969,7.136C223.719,7.136,285.938,68.338,285.938,143.833z"/>
<polygon fill="#790301" points="132.029,112.373 106.999,112.373 106.999,121.453 97.959,121.453 97.959,112.373 72.929,112.373 
	80.099,100.953 77.179,100.953 82.659,92.233 76.999,92.233 82.459,83.523 78.679,83.523 85.839,72.123 81.389,72.123 
	102.479,38.543 123.569,72.123 119.119,72.123 126.279,83.523 122.499,83.523 127.959,92.233 122.299,92.233 127.779,100.953 
	124.859,100.953 "/>
<polygon fill="#790301" points="227.028,109.033 201.999,109.033 201.999,117.453 192.959,117.453 192.959,109.033 167.929,109.033 
	175.099,98.443 172.179,98.443 177.659,90.343 171.999,90.343 177.459,82.273 173.679,82.273 180.839,71.693 176.389,71.693 
	197.479,40.543 218.568,71.693 214.119,71.693 221.278,82.273 217.499,82.273 222.959,90.343 217.299,90.343 222.778,98.443 
	219.858,98.443 "/>
</svg>
