<?xml version="1.0" encoding="utf-8"?>
<!-- Generator: Adobe Illustrator 15.1.0, SVG Export Plug-In . SVG Version: 6.00 Build 0)  -->
<!DOCTYPE svg PUBLIC "-//W3C//DTD SVG 1.1//EN" "http://www.w3.org/Graphics/SVG/1.1/DTD/svg11.dtd">
<svg version="1.1" id="Layer_1" xmlns="http://www.w3.org/2000/svg" xmlns:xlink="http://www.w3.org/1999/xlink" x="0px" y="0px"
	 width="293.938px" height="301.906px" viewBox="0 0 293.938 301.906" enable-background="new 0 0 293.938 301.906"
	 xml:space="preserve">
<path fill="none" stroke="#790301" stroke-width="4" stroke-miterlimit="10" d="M146.889,169.438"/>
<path fill="none" stroke="#790301" stroke-width="4" stroke-miterlimit="10" d="M270.68,169.438
	c0,62.975-55.424,114.025-123.791,114.025c-68.368,0-123.791-51.051-123.791-114.025"/>
<path fill="#790301" stroke="#790301" stroke-width="8" stroke-miterlimit="10" d="M146.969,154.938c-78.959,0-142.969,0-142.969,0
	c0,78.959,64.009,142.969,142.969,142.969c78.959,0,142.969-64.01,142.969-142.969C289.938,154.938,225.928,154.938,146.969,154.938
	z M146.969,294.771C70.218,294.771,8,233.568,8,158.073c0,0,62.218,0,138.969,0c76.75,0,138.969,0,138.969,0
	C285.938,233.568,223.719,294.771,146.969,294.771z"/>
<path fill="#790301" d="M286.129,184.934h-136.16l41.4,104.119c-23.98,6.67-44.4,5.73-44.4,5.73h-0.08c0,0-20.42,0.939-44.41-5.73
	l41.41-104.119H11.969v-30h274.16V184.934z"/>
</svg>
